<!-- icon666.com - MILLIONS OF FREE VECTOR ICONS --><svg viewBox="0 0 64 64" xmlns="http://www.w3.org/2000/svg"><g id="cart-website-calculator-money"><path d="m3 10h54v42h-54z" fill="#e9e9ea"></path><rect fill="#3e3d42" height="31" rx="2" width="29" x="31" y="30"></rect><path d="m6 36h25v24h-25z" fill="#64c37d"></path><path d="m31 39v18h-18a4 4 0 0 0 -4-4v-10a4 4 0 0 0 4-4z" fill="#91dc5a"></path><circle cx="14" cy="30" fill="#ff9811" r="2"></circle><circle cx="24" cy="30" fill="#ff9811" r="2"></circle><g fill="#e9e9ea"><path d="m43 52h5v5h-5z"></path><path d="m34 52h5v5h-5z"></path><path d="m43 44h5v5h-5z"></path><path d="m34 44h5v5h-5z"></path><path d="m52 44h5v13h-5z"></path></g><path d="m34 33h23v7h-23z" fill="#2488ff"></path><path d="m27 17-1 8h-13v-6.92-1.08z" fill="#ff9811"></path><circle cx="23" cy="48" fill="#ffda44" r="8"></circle><path d="m3 4h54v6h-54z" fill="#00d7df"></path><path d="m52 36h2v2h-2z" fill="#9bc9ff"></path><path d="m48 36h2v2h-2z" fill="#9bc9ff"></path><path d="m6 6h2v2h-2z" fill="#ff5023"></path><path d="m10 6h2v2h-2z" fill="#ffda44"></path><path d="m14 6h2v2h-2z" fill="#c2fb3b"></path><path d="m24 27h-10a3 3 0 1 0 3 3 2.966 2.966 0 0 0 -.184-1h4.368a2.966 2.966 0 0 0 -.184 1 3 3 0 1 0 3-3zm-9 3a1 1 0 1 1 -1-1 1 1 0 0 1 1 1zm9 1a1 1 0 1 1 1-1 1 1 0 0 1 -1 1z" fill="#2d2d30"></path><path d="m27.75 16.34a.981.981 0 0 0 -.75-.34h-13v-2a1 1 0 0 0 -1-1h-4v2h3v10a1 1 0 0 0 1 1h13a1 1 0 0 0 .99-.88l1-8a.968.968 0 0 0 -.24-.78zm-2.63 7.66h-11.12v-6h11.87z" fill="#2d2d30"></path><path d="m27 50a3.009 3.009 0 0 1 -3 3v1h-2v-1a3.009 3.009 0 0 1 -3-3h2a1 1 0 0 0 1 1h2a1 1 0 0 0 0-2h-2a3 3 0 0 1 0-6v-1h2v1a3.009 3.009 0 0 1 3 3h-2a1 1 0 0 0 -1-1h-2a1 1 0 0 0 0 2h2a3.009 3.009 0 0 1 3 3z" fill="#fff"></path><path d="m34 16h6v2h-6z" fill="#1a6fb0"></path><path d="m43 16h10v2h-10z" fill="#1a6fb0"></path><path d="m34 22h12v2h-12z" fill="#1a6fb0"></path></g></svg>